<mxfile host="Electron" modified="2024-02-22T08:50:30.973Z" agent="Mozilla/5.0 (X11; Linux x86_64) AppleWebKit/537.36 (KHTML, like Gecko) draw.io/23.1.5 Chrome/120.0.6099.109 Electron/28.1.0 Safari/537.36" etag="0CBAJkwMAmSbinfU3dRd" version="23.1.5" type="device">
  <diagram name="Page-1" id="FZk3b7iePjCUeVVY6FOw">
    <mxGraphModel dx="1593" dy="1047" grid="1" gridSize="10" guides="1" tooltips="1" connect="1" arrows="1" fold="1" page="1" pageScale="1" pageWidth="850" pageHeight="1100" background="#ffffff" math="0" shadow="0">
      <root>
        <mxCell id="0" />
        <mxCell id="1" parent="0" />
        <mxCell id="wov52ppFbS1imyL3sNbq-9" value="" style="edgeStyle=orthogonalEdgeStyle;rounded=0;sketch=1;hachureGap=4;jiggle=2;curveFitting=1;orthogonalLoop=1;jettySize=auto;html=1;fontFamily=Helvetica;fontSize=12;fontColor=#003366;" edge="1" parent="1" source="wov52ppFbS1imyL3sNbq-2">
          <mxGeometry relative="1" as="geometry">
            <mxPoint x="420" y="250" as="targetPoint" />
          </mxGeometry>
        </mxCell>
        <mxCell id="wov52ppFbS1imyL3sNbq-12" style="edgeStyle=orthogonalEdgeStyle;rounded=0;sketch=1;hachureGap=4;jiggle=2;curveFitting=1;orthogonalLoop=1;jettySize=auto;html=1;entryX=0.5;entryY=0;entryDx=0;entryDy=0;strokeColor=#003366;align=center;verticalAlign=middle;fontFamily=Helvetica;fontSize=12;fontColor=#003366;labelBackgroundColor=default;endArrow=classic;" edge="1" parent="1" source="wov52ppFbS1imyL3sNbq-2" target="wov52ppFbS1imyL3sNbq-11">
          <mxGeometry relative="1" as="geometry" />
        </mxCell>
        <mxCell id="wov52ppFbS1imyL3sNbq-2" value="Run Task" style="rounded=1;whiteSpace=wrap;html=1;sketch=1;hachureGap=4;jiggle=2;curveFitting=1;strokeColor=#003366;align=center;verticalAlign=middle;fontFamily=Helvetica;fontSize=12;fontColor=#003366;fillColor=#99CCFF;fillStyle=hachure;" vertex="1" parent="1">
          <mxGeometry x="360" y="120" width="120" height="40" as="geometry" />
        </mxCell>
        <mxCell id="wov52ppFbS1imyL3sNbq-10" style="edgeStyle=orthogonalEdgeStyle;rounded=0;sketch=1;hachureGap=4;jiggle=2;curveFitting=1;orthogonalLoop=1;jettySize=auto;html=1;entryX=0.5;entryY=0;entryDx=0;entryDy=0;fontFamily=Helvetica;fontSize=12;fontColor=#003366;strokeColor=#003366;" edge="1" parent="1" source="wov52ppFbS1imyL3sNbq-6" target="wov52ppFbS1imyL3sNbq-2">
          <mxGeometry relative="1" as="geometry" />
        </mxCell>
        <mxCell id="wov52ppFbS1imyL3sNbq-6" value="" style="strokeWidth=2;html=1;shape=mxgraph.flowchart.start_2;whiteSpace=wrap;rounded=1;sketch=1;hachureGap=4;jiggle=2;curveFitting=1;strokeColor=#003366;align=center;verticalAlign=middle;fontFamily=Helvetica;fontSize=12;fontColor=#003366;fillColor=#99CCFF;" vertex="1" parent="1">
          <mxGeometry x="400" y="40" width="40" height="40" as="geometry" />
        </mxCell>
        <mxCell id="wov52ppFbS1imyL3sNbq-7" value="" style="strokeWidth=2;html=1;shape=mxgraph.flowchart.decision;whiteSpace=wrap;rounded=1;sketch=1;hachureGap=4;jiggle=2;curveFitting=1;strokeColor=#003366;align=center;verticalAlign=middle;fontFamily=Helvetica;fontSize=12;fontColor=#003366;fillColor=#99CCFF;" vertex="1" parent="1">
          <mxGeometry x="400" y="440" width="40" height="40" as="geometry" />
        </mxCell>
        <mxCell id="wov52ppFbS1imyL3sNbq-15" style="edgeStyle=orthogonalEdgeStyle;rounded=0;sketch=1;hachureGap=4;jiggle=2;curveFitting=1;orthogonalLoop=1;jettySize=auto;html=1;entryX=0.5;entryY=0;entryDx=0;entryDy=0;strokeColor=#003366;align=center;verticalAlign=middle;fontFamily=Helvetica;fontSize=12;fontColor=#003366;labelBackgroundColor=default;endArrow=classic;" edge="1" parent="1" source="wov52ppFbS1imyL3sNbq-11" target="wov52ppFbS1imyL3sNbq-13">
          <mxGeometry relative="1" as="geometry" />
        </mxCell>
        <mxCell id="wov52ppFbS1imyL3sNbq-11" value="Build Graph" style="rounded=1;whiteSpace=wrap;html=1;sketch=1;hachureGap=4;jiggle=2;curveFitting=1;strokeColor=#003366;align=center;verticalAlign=middle;fontFamily=Helvetica;fontSize=12;fontColor=#003366;fillColor=#99CCFF;" vertex="1" parent="1">
          <mxGeometry x="360" y="200" width="120" height="40" as="geometry" />
        </mxCell>
        <mxCell id="wov52ppFbS1imyL3sNbq-17" style="edgeStyle=orthogonalEdgeStyle;rounded=0;sketch=1;hachureGap=4;jiggle=2;curveFitting=1;orthogonalLoop=1;jettySize=auto;html=1;strokeColor=#003366;align=center;verticalAlign=middle;fontFamily=Helvetica;fontSize=12;fontColor=#003366;labelBackgroundColor=default;endArrow=classic;" edge="1" parent="1" source="wov52ppFbS1imyL3sNbq-13" target="wov52ppFbS1imyL3sNbq-16">
          <mxGeometry relative="1" as="geometry" />
        </mxCell>
        <mxCell id="wov52ppFbS1imyL3sNbq-13" value="Calculate SHA1s" style="rounded=1;whiteSpace=wrap;html=1;sketch=1;hachureGap=4;jiggle=2;curveFitting=1;strokeColor=#003366;align=center;verticalAlign=middle;fontFamily=Helvetica;fontSize=12;fontColor=#003366;fillColor=#99CCFF;" vertex="1" parent="1">
          <mxGeometry x="360" y="280" width="120" height="40" as="geometry" />
        </mxCell>
        <mxCell id="wov52ppFbS1imyL3sNbq-16" value="Find Artifacts&lt;br&gt;in Local Cache" style="rounded=1;whiteSpace=wrap;html=1;sketch=1;hachureGap=4;jiggle=2;curveFitting=1;strokeColor=#003366;align=center;verticalAlign=middle;fontFamily=Helvetica;fontSize=12;fontColor=#003366;fillColor=#99CCFF;" vertex="1" parent="1">
          <mxGeometry x="360" y="360" width="120" height="40" as="geometry" />
        </mxCell>
        <mxCell id="wov52ppFbS1imyL3sNbq-18" style="edgeStyle=orthogonalEdgeStyle;rounded=0;sketch=1;hachureGap=4;jiggle=2;curveFitting=1;orthogonalLoop=1;jettySize=auto;html=1;entryX=0.5;entryY=0;entryDx=0;entryDy=0;entryPerimeter=0;strokeColor=#003366;align=center;verticalAlign=middle;fontFamily=Helvetica;fontSize=12;fontColor=#003366;labelBackgroundColor=default;endArrow=classic;" edge="1" parent="1" source="wov52ppFbS1imyL3sNbq-16" target="wov52ppFbS1imyL3sNbq-7">
          <mxGeometry relative="1" as="geometry" />
        </mxCell>
        <mxCell id="wov52ppFbS1imyL3sNbq-22" style="edgeStyle=orthogonalEdgeStyle;rounded=0;sketch=1;hachureGap=4;jiggle=2;curveFitting=1;orthogonalLoop=1;jettySize=auto;html=1;entryX=0.5;entryY=0;entryDx=0;entryDy=0;strokeColor=#003366;align=center;verticalAlign=middle;fontFamily=Helvetica;fontSize=12;fontColor=#003366;labelBackgroundColor=default;endArrow=classic;" edge="1" parent="1" source="wov52ppFbS1imyL3sNbq-19" target="wov52ppFbS1imyL3sNbq-21">
          <mxGeometry relative="1" as="geometry" />
        </mxCell>
        <mxCell id="wov52ppFbS1imyL3sNbq-45" value="" style="edgeStyle=orthogonalEdgeStyle;rounded=0;sketch=1;hachureGap=4;jiggle=2;curveFitting=1;orthogonalLoop=1;jettySize=auto;html=1;strokeColor=#003366;align=center;verticalAlign=middle;fontFamily=Helvetica;fontSize=12;fontColor=#003366;labelBackgroundColor=none;endArrow=classic;" edge="1" parent="1" source="wov52ppFbS1imyL3sNbq-19" target="wov52ppFbS1imyL3sNbq-21">
          <mxGeometry relative="1" as="geometry" />
        </mxCell>
        <mxCell id="wov52ppFbS1imyL3sNbq-69" value="No" style="edgeLabel;html=1;align=center;verticalAlign=middle;resizable=0;points=[];rounded=1;sketch=1;hachureGap=4;jiggle=2;fillStyle=hachure;curveFitting=1;strokeColor=#003366;fontFamily=Helvetica;fontSize=12;fontColor=#003366;labelBackgroundColor=none;fillColor=#99CCFF;gradientColor=none;" vertex="1" connectable="0" parent="wov52ppFbS1imyL3sNbq-45">
          <mxGeometry x="-0.3677" relative="1" as="geometry">
            <mxPoint x="14" y="5" as="offset" />
          </mxGeometry>
        </mxCell>
        <mxCell id="wov52ppFbS1imyL3sNbq-48" style="edgeStyle=orthogonalEdgeStyle;rounded=0;sketch=1;hachureGap=4;jiggle=2;curveFitting=1;orthogonalLoop=1;jettySize=auto;html=1;entryX=1;entryY=0.5;entryDx=0;entryDy=0;strokeColor=#003366;align=center;verticalAlign=middle;fontFamily=Helvetica;fontSize=12;fontColor=#003366;labelBackgroundColor=none;endArrow=classic;" edge="1" parent="1" source="wov52ppFbS1imyL3sNbq-19" target="wov52ppFbS1imyL3sNbq-47">
          <mxGeometry relative="1" as="geometry" />
        </mxCell>
        <mxCell id="wov52ppFbS1imyL3sNbq-70" value="Yes" style="edgeLabel;html=1;align=center;verticalAlign=middle;resizable=0;points=[];rounded=1;sketch=1;hachureGap=4;jiggle=2;fillStyle=hachure;curveFitting=1;strokeColor=#003366;fontFamily=Helvetica;fontSize=12;fontColor=#003366;labelBackgroundColor=none;fillColor=#99CCFF;gradientColor=none;" vertex="1" connectable="0" parent="wov52ppFbS1imyL3sNbq-48">
          <mxGeometry x="-0.3039" y="3" relative="1" as="geometry">
            <mxPoint x="15" y="-12" as="offset" />
          </mxGeometry>
        </mxCell>
        <mxCell id="wov52ppFbS1imyL3sNbq-19" value="" style="strokeWidth=2;html=1;shape=mxgraph.flowchart.decision;whiteSpace=wrap;rounded=1;sketch=1;hachureGap=4;jiggle=2;curveFitting=1;strokeColor=#003366;align=center;verticalAlign=middle;fontFamily=Helvetica;fontSize=12;fontColor=#003366;fillColor=#99CCFF;" vertex="1" parent="1">
          <mxGeometry x="400" y="520" width="40" height="40" as="geometry" />
        </mxCell>
        <mxCell id="wov52ppFbS1imyL3sNbq-20" style="edgeStyle=orthogonalEdgeStyle;rounded=0;sketch=1;hachureGap=4;jiggle=2;curveFitting=1;orthogonalLoop=1;jettySize=auto;html=1;entryX=0.5;entryY=0;entryDx=0;entryDy=0;entryPerimeter=0;strokeColor=#003366;align=center;verticalAlign=middle;fontFamily=Helvetica;fontSize=12;fontColor=#003366;labelBackgroundColor=default;endArrow=classic;" edge="1" parent="1" source="wov52ppFbS1imyL3sNbq-7" target="wov52ppFbS1imyL3sNbq-19">
          <mxGeometry relative="1" as="geometry" />
        </mxCell>
        <mxCell id="wov52ppFbS1imyL3sNbq-42" value="Not Available" style="edgeLabel;html=1;align=center;verticalAlign=middle;resizable=0;points=[];rounded=1;sketch=1;hachureGap=4;jiggle=2;fillStyle=hachure;curveFitting=1;strokeColor=#003366;fontFamily=Helvetica;fontSize=12;fontColor=#003366;labelBackgroundColor=none;fillColor=#99CCFF;gradientColor=none;" vertex="1" connectable="0" parent="wov52ppFbS1imyL3sNbq-20">
          <mxGeometry x="-0.0405" y="1" relative="1" as="geometry">
            <mxPoint x="40" y="-2" as="offset" />
          </mxGeometry>
        </mxCell>
        <mxCell id="wov52ppFbS1imyL3sNbq-27" style="edgeStyle=orthogonalEdgeStyle;rounded=0;sketch=1;hachureGap=4;jiggle=2;curveFitting=1;orthogonalLoop=1;jettySize=auto;html=1;strokeColor=#003366;align=center;verticalAlign=middle;fontFamily=Helvetica;fontSize=12;fontColor=#003366;labelBackgroundColor=default;endArrow=classic;" edge="1" parent="1" source="wov52ppFbS1imyL3sNbq-21" target="wov52ppFbS1imyL3sNbq-24">
          <mxGeometry relative="1" as="geometry" />
        </mxCell>
        <mxCell id="wov52ppFbS1imyL3sNbq-21" value="Execute&lt;br&gt;Task.run" style="rounded=1;whiteSpace=wrap;html=1;sketch=1;hachureGap=4;jiggle=2;curveFitting=1;strokeColor=#003366;align=center;verticalAlign=middle;fontFamily=Helvetica;fontSize=12;fontColor=#003366;fillColor=#99CCFF;" vertex="1" parent="1">
          <mxGeometry x="360" y="600" width="120" height="40" as="geometry" />
        </mxCell>
        <mxCell id="wov52ppFbS1imyL3sNbq-23" value="Publish&lt;br&gt;Task.publish" style="rounded=1;whiteSpace=wrap;html=1;sketch=1;hachureGap=4;jiggle=2;curveFitting=1;strokeColor=#003366;align=center;verticalAlign=middle;fontFamily=Helvetica;fontSize=12;fontColor=#003366;fillColor=#99CCFF;" vertex="1" parent="1">
          <mxGeometry x="360" y="760" width="120" height="40" as="geometry" />
        </mxCell>
        <mxCell id="wov52ppFbS1imyL3sNbq-28" style="edgeStyle=orthogonalEdgeStyle;rounded=0;sketch=1;hachureGap=4;jiggle=2;curveFitting=1;orthogonalLoop=1;jettySize=auto;html=1;entryX=0.5;entryY=0;entryDx=0;entryDy=0;strokeColor=#003366;align=center;verticalAlign=middle;fontFamily=Helvetica;fontSize=12;fontColor=#003366;labelBackgroundColor=default;endArrow=classic;" edge="1" parent="1" source="wov52ppFbS1imyL3sNbq-24" target="wov52ppFbS1imyL3sNbq-23">
          <mxGeometry relative="1" as="geometry" />
        </mxCell>
        <mxCell id="wov52ppFbS1imyL3sNbq-35" value="Success" style="edgeLabel;html=1;align=center;verticalAlign=middle;resizable=0;points=[];rounded=1;sketch=1;hachureGap=4;jiggle=2;fillStyle=hachure;curveFitting=1;strokeColor=#003366;fontFamily=Helvetica;fontSize=12;fontColor=none;fillColor=#99CCFF;labelBackgroundColor=#003366;noLabel=1;" vertex="1" connectable="0" parent="wov52ppFbS1imyL3sNbq-28">
          <mxGeometry x="-0.1" y="-3" relative="1" as="geometry">
            <mxPoint x="33" as="offset" />
          </mxGeometry>
        </mxCell>
        <mxCell id="wov52ppFbS1imyL3sNbq-37" value="Success" style="edgeLabel;html=1;align=center;verticalAlign=middle;resizable=0;points=[];rounded=1;sketch=1;hachureGap=4;jiggle=2;fillStyle=hachure;curveFitting=1;strokeColor=#003366;fontFamily=Helvetica;fontSize=12;fontColor=#003366;labelBackgroundColor=none;fillColor=#99CCFF;gradientColor=none;" vertex="1" connectable="0" parent="wov52ppFbS1imyL3sNbq-28">
          <mxGeometry x="-0.25" y="2" relative="1" as="geometry">
            <mxPoint x="23" as="offset" />
          </mxGeometry>
        </mxCell>
        <mxCell id="wov52ppFbS1imyL3sNbq-24" value="" style="strokeWidth=2;html=1;shape=mxgraph.flowchart.decision;whiteSpace=wrap;rounded=1;sketch=1;hachureGap=4;jiggle=2;curveFitting=1;strokeColor=#003366;align=center;verticalAlign=middle;fontFamily=Helvetica;fontSize=12;fontColor=#003366;fillColor=#99CCFF;" vertex="1" parent="1">
          <mxGeometry x="400" y="680" width="40" height="40" as="geometry" />
        </mxCell>
        <mxCell id="wov52ppFbS1imyL3sNbq-30" style="edgeStyle=orthogonalEdgeStyle;rounded=0;sketch=1;hachureGap=4;jiggle=2;curveFitting=1;orthogonalLoop=1;jettySize=auto;html=1;entryX=0.5;entryY=0;entryDx=0;entryDy=0;strokeColor=#003366;align=center;verticalAlign=middle;fontFamily=Helvetica;fontSize=12;fontColor=#003366;labelBackgroundColor=default;endArrow=classic;" edge="1" parent="1" source="wov52ppFbS1imyL3sNbq-25" target="wov52ppFbS1imyL3sNbq-26">
          <mxGeometry relative="1" as="geometry" />
        </mxCell>
        <mxCell id="wov52ppFbS1imyL3sNbq-40" value="Success" style="edgeLabel;html=1;align=center;verticalAlign=middle;resizable=0;points=[];rounded=1;sketch=1;hachureGap=4;jiggle=2;fillStyle=hachure;curveFitting=1;strokeColor=#003366;fontFamily=Helvetica;fontSize=12;fontColor=#003366;labelBackgroundColor=none;fillColor=#99CCFF;gradientColor=none;" vertex="1" connectable="0" parent="wov52ppFbS1imyL3sNbq-30">
          <mxGeometry x="0.007" y="-1" relative="1" as="geometry">
            <mxPoint x="26" y="-2" as="offset" />
          </mxGeometry>
        </mxCell>
        <mxCell id="wov52ppFbS1imyL3sNbq-25" value="" style="strokeWidth=2;html=1;shape=mxgraph.flowchart.decision;whiteSpace=wrap;rounded=1;sketch=1;hachureGap=4;jiggle=2;curveFitting=1;strokeColor=#003366;align=center;verticalAlign=middle;fontFamily=Helvetica;fontSize=12;fontColor=#003366;fillColor=#99CCFF;" vertex="1" parent="1">
          <mxGeometry x="400" y="840" width="40" height="40" as="geometry" />
        </mxCell>
        <mxCell id="wov52ppFbS1imyL3sNbq-57" style="edgeStyle=orthogonalEdgeStyle;rounded=0;sketch=1;hachureGap=4;jiggle=2;curveFitting=1;orthogonalLoop=1;jettySize=auto;html=1;strokeColor=#003366;align=center;verticalAlign=middle;fontFamily=Helvetica;fontSize=12;fontColor=#003366;labelBackgroundColor=none;endArrow=classic;" edge="1" parent="1" source="wov52ppFbS1imyL3sNbq-26" target="wov52ppFbS1imyL3sNbq-56">
          <mxGeometry relative="1" as="geometry" />
        </mxCell>
        <mxCell id="wov52ppFbS1imyL3sNbq-26" value="Store Artifact in &lt;br&gt;Local Cache" style="rounded=1;whiteSpace=wrap;html=1;sketch=1;hachureGap=4;jiggle=2;curveFitting=1;strokeColor=#003366;align=center;verticalAlign=middle;fontFamily=Helvetica;fontSize=12;fontColor=#003366;fillColor=#99CCFF;" vertex="1" parent="1">
          <mxGeometry x="360" y="920" width="120" height="40" as="geometry" />
        </mxCell>
        <mxCell id="wov52ppFbS1imyL3sNbq-29" style="edgeStyle=orthogonalEdgeStyle;rounded=0;sketch=1;hachureGap=4;jiggle=2;curveFitting=1;orthogonalLoop=1;jettySize=auto;html=1;entryX=0.5;entryY=0;entryDx=0;entryDy=0;entryPerimeter=0;strokeColor=#003366;align=center;verticalAlign=middle;fontFamily=Helvetica;fontSize=12;fontColor=#003366;labelBackgroundColor=default;endArrow=classic;" edge="1" parent="1" source="wov52ppFbS1imyL3sNbq-23" target="wov52ppFbS1imyL3sNbq-25">
          <mxGeometry relative="1" as="geometry" />
        </mxCell>
        <mxCell id="wov52ppFbS1imyL3sNbq-31" value="" style="strokeWidth=2;html=1;shape=mxgraph.flowchart.start_2;whiteSpace=wrap;rounded=1;sketch=1;hachureGap=4;jiggle=2;fillStyle=hachure;curveFitting=1;strokeColor=#003366;align=center;verticalAlign=middle;fontFamily=Helvetica;fontSize=12;fontColor=#003366;fillColor=#99CCFF;" vertex="1" parent="1">
          <mxGeometry x="400" y="1120" width="40" height="40" as="geometry" />
        </mxCell>
        <mxCell id="wov52ppFbS1imyL3sNbq-32" style="edgeStyle=orthogonalEdgeStyle;rounded=0;sketch=1;hachureGap=4;jiggle=2;curveFitting=1;orthogonalLoop=1;jettySize=auto;html=1;entryX=1;entryY=0.5;entryDx=0;entryDy=0;entryPerimeter=0;strokeColor=#003366;align=center;verticalAlign=middle;fontFamily=Helvetica;fontSize=12;fontColor=#003366;labelBackgroundColor=default;endArrow=classic;" edge="1" parent="1" source="wov52ppFbS1imyL3sNbq-24" target="wov52ppFbS1imyL3sNbq-31">
          <mxGeometry relative="1" as="geometry">
            <Array as="points">
              <mxPoint x="720" y="700" />
              <mxPoint x="720" y="1140" />
            </Array>
          </mxGeometry>
        </mxCell>
        <mxCell id="wov52ppFbS1imyL3sNbq-33" value="" style="edgeLabel;html=1;align=center;verticalAlign=middle;resizable=0;points=[];rounded=1;sketch=1;hachureGap=4;jiggle=2;fillStyle=hachure;curveFitting=1;strokeColor=#003366;fontFamily=Helvetica;fontSize=12;fontColor=#003366;fillColor=#99CCFF;" vertex="1" connectable="0" parent="wov52ppFbS1imyL3sNbq-32">
          <mxGeometry x="-0.848" y="1" relative="1" as="geometry">
            <mxPoint as="offset" />
          </mxGeometry>
        </mxCell>
        <mxCell id="wov52ppFbS1imyL3sNbq-34" value="Failure" style="edgeLabel;html=1;align=center;verticalAlign=middle;resizable=0;points=[];rounded=1;sketch=1;hachureGap=4;jiggle=2;fillStyle=hachure;curveFitting=1;strokeColor=#003366;fontFamily=Helvetica;fontSize=12;fontColor=#003366;fillColor=#99CCFF;labelBackgroundColor=none;" vertex="1" connectable="0" parent="wov52ppFbS1imyL3sNbq-32">
          <mxGeometry x="-0.936" y="-2" relative="1" as="geometry">
            <mxPoint y="-12" as="offset" />
          </mxGeometry>
        </mxCell>
        <mxCell id="wov52ppFbS1imyL3sNbq-38" style="edgeStyle=orthogonalEdgeStyle;rounded=0;sketch=1;hachureGap=4;jiggle=2;curveFitting=1;orthogonalLoop=1;jettySize=auto;html=1;entryX=1;entryY=0.5;entryDx=0;entryDy=0;entryPerimeter=0;strokeColor=#003366;align=center;verticalAlign=middle;fontFamily=Helvetica;fontSize=12;fontColor=none;labelBackgroundColor=#003366;endArrow=classic;" edge="1" parent="1" source="wov52ppFbS1imyL3sNbq-25" target="wov52ppFbS1imyL3sNbq-31">
          <mxGeometry relative="1" as="geometry">
            <Array as="points">
              <mxPoint x="720" y="860" />
              <mxPoint x="720" y="1140" />
            </Array>
          </mxGeometry>
        </mxCell>
        <mxCell id="wov52ppFbS1imyL3sNbq-39" value="Failure" style="edgeLabel;html=1;align=center;verticalAlign=middle;resizable=0;points=[];rounded=1;sketch=1;hachureGap=4;jiggle=2;fillStyle=hachure;curveFitting=1;strokeColor=#003366;fontFamily=Helvetica;fontSize=12;fontColor=#003366;labelBackgroundColor=none;fillColor=#99CCFF;gradientColor=none;" vertex="1" connectable="0" parent="wov52ppFbS1imyL3sNbq-38">
          <mxGeometry x="-0.9156" y="-1" relative="1" as="geometry">
            <mxPoint y="-11" as="offset" />
          </mxGeometry>
        </mxCell>
        <mxCell id="wov52ppFbS1imyL3sNbq-41" style="edgeStyle=orthogonalEdgeStyle;rounded=0;sketch=1;hachureGap=4;jiggle=2;curveFitting=1;orthogonalLoop=1;jettySize=auto;html=1;entryX=0;entryY=0.5;entryDx=0;entryDy=0;entryPerimeter=0;strokeColor=#003366;align=center;verticalAlign=middle;fontFamily=Helvetica;fontSize=12;fontColor=#003366;labelBackgroundColor=none;endArrow=classic;" edge="1" parent="1" source="wov52ppFbS1imyL3sNbq-7" target="wov52ppFbS1imyL3sNbq-31">
          <mxGeometry relative="1" as="geometry">
            <Array as="points">
              <mxPoint x="120" y="460" />
              <mxPoint x="120" y="1140" />
            </Array>
          </mxGeometry>
        </mxCell>
        <mxCell id="wov52ppFbS1imyL3sNbq-44" value="Available" style="edgeLabel;html=1;align=center;verticalAlign=middle;resizable=0;points=[];rounded=1;sketch=1;hachureGap=4;jiggle=2;fillStyle=hachure;curveFitting=1;strokeColor=#003366;fontFamily=Helvetica;fontSize=12;fontColor=#003366;labelBackgroundColor=none;fillColor=#99CCFF;gradientColor=none;" vertex="1" connectable="0" parent="wov52ppFbS1imyL3sNbq-41">
          <mxGeometry x="-0.8613" y="-2" relative="1" as="geometry">
            <mxPoint x="46" y="-8" as="offset" />
          </mxGeometry>
        </mxCell>
        <mxCell id="wov52ppFbS1imyL3sNbq-51" style="edgeStyle=orthogonalEdgeStyle;rounded=0;sketch=1;hachureGap=4;jiggle=2;curveFitting=1;orthogonalLoop=1;jettySize=auto;html=1;strokeColor=#003366;align=center;verticalAlign=middle;fontFamily=Helvetica;fontSize=12;fontColor=#003366;labelBackgroundColor=none;endArrow=classic;" edge="1" parent="1" source="wov52ppFbS1imyL3sNbq-47" target="wov52ppFbS1imyL3sNbq-49">
          <mxGeometry relative="1" as="geometry" />
        </mxCell>
        <mxCell id="wov52ppFbS1imyL3sNbq-47" value="Check &lt;br&gt;Remote Cache" style="rounded=1;whiteSpace=wrap;html=1;sketch=1;hachureGap=4;jiggle=2;curveFitting=1;strokeColor=#003366;align=center;verticalAlign=middle;fontFamily=Helvetica;fontSize=12;fontColor=#003366;fillColor=#99CCFF;" vertex="1" parent="1">
          <mxGeometry x="160" y="520" width="120" height="40" as="geometry" />
        </mxCell>
        <mxCell id="wov52ppFbS1imyL3sNbq-50" style="edgeStyle=orthogonalEdgeStyle;rounded=0;sketch=1;hachureGap=4;jiggle=2;curveFitting=1;orthogonalLoop=1;jettySize=auto;html=1;strokeColor=#003366;align=center;verticalAlign=middle;fontFamily=Helvetica;fontSize=12;fontColor=#003366;labelBackgroundColor=none;endArrow=classic;" edge="1" parent="1" source="wov52ppFbS1imyL3sNbq-49" target="wov52ppFbS1imyL3sNbq-21">
          <mxGeometry relative="1" as="geometry" />
        </mxCell>
        <mxCell id="wov52ppFbS1imyL3sNbq-52" value="Not Available" style="edgeLabel;html=1;align=center;verticalAlign=middle;resizable=0;points=[];rounded=1;sketch=1;hachureGap=4;jiggle=2;fillStyle=hachure;curveFitting=1;strokeColor=#003366;fontFamily=Helvetica;fontSize=12;fontColor=#003366;labelBackgroundColor=none;fillColor=#99CCFF;gradientColor=none;" vertex="1" connectable="0" parent="wov52ppFbS1imyL3sNbq-50">
          <mxGeometry x="-0.6526" y="-3" relative="1" as="geometry">
            <mxPoint x="29" y="-13" as="offset" />
          </mxGeometry>
        </mxCell>
        <mxCell id="wov52ppFbS1imyL3sNbq-54" style="edgeStyle=orthogonalEdgeStyle;rounded=0;sketch=1;hachureGap=4;jiggle=2;curveFitting=1;orthogonalLoop=1;jettySize=auto;html=1;entryX=0.5;entryY=0;entryDx=0;entryDy=0;strokeColor=#003366;align=center;verticalAlign=middle;fontFamily=Helvetica;fontSize=12;fontColor=#003366;labelBackgroundColor=none;endArrow=classic;" edge="1" parent="1" source="wov52ppFbS1imyL3sNbq-49" target="wov52ppFbS1imyL3sNbq-53">
          <mxGeometry relative="1" as="geometry" />
        </mxCell>
        <mxCell id="wov52ppFbS1imyL3sNbq-49" value="" style="strokeWidth=2;html=1;shape=mxgraph.flowchart.decision;whiteSpace=wrap;rounded=1;sketch=1;hachureGap=4;jiggle=2;curveFitting=1;strokeColor=#003366;align=center;verticalAlign=middle;fontFamily=Helvetica;fontSize=12;fontColor=#003366;fillColor=#99CCFF;" vertex="1" parent="1">
          <mxGeometry x="200" y="600" width="40" height="40" as="geometry" />
        </mxCell>
        <mxCell id="wov52ppFbS1imyL3sNbq-55" style="edgeStyle=orthogonalEdgeStyle;rounded=0;sketch=1;hachureGap=4;jiggle=2;curveFitting=1;orthogonalLoop=1;jettySize=auto;html=1;entryX=0;entryY=0.5;entryDx=0;entryDy=0;strokeColor=#003366;align=center;verticalAlign=middle;fontFamily=Helvetica;fontSize=12;fontColor=#003366;labelBackgroundColor=none;endArrow=classic;" edge="1" parent="1" source="wov52ppFbS1imyL3sNbq-53" target="wov52ppFbS1imyL3sNbq-26">
          <mxGeometry relative="1" as="geometry">
            <Array as="points">
              <mxPoint x="220" y="940" />
            </Array>
          </mxGeometry>
        </mxCell>
        <mxCell id="wov52ppFbS1imyL3sNbq-53" value="Download &lt;br&gt;Artifact" style="rounded=1;whiteSpace=wrap;html=1;sketch=1;hachureGap=4;jiggle=2;curveFitting=1;strokeColor=#003366;align=center;verticalAlign=middle;fontFamily=Helvetica;fontSize=12;fontColor=#003366;fillColor=#99CCFF;" vertex="1" parent="1">
          <mxGeometry x="160" y="680" width="120" height="40" as="geometry" />
        </mxCell>
        <mxCell id="wov52ppFbS1imyL3sNbq-59" style="edgeStyle=orthogonalEdgeStyle;rounded=0;sketch=1;hachureGap=4;jiggle=2;curveFitting=1;orthogonalLoop=1;jettySize=auto;html=1;entryX=0;entryY=0.5;entryDx=0;entryDy=0;strokeColor=#003366;align=center;verticalAlign=middle;fontFamily=Helvetica;fontSize=12;fontColor=#003366;labelBackgroundColor=none;endArrow=classic;" edge="1" parent="1" source="wov52ppFbS1imyL3sNbq-56" target="wov52ppFbS1imyL3sNbq-58">
          <mxGeometry relative="1" as="geometry" />
        </mxCell>
        <mxCell id="wov52ppFbS1imyL3sNbq-61" value="Yes" style="edgeLabel;html=1;align=center;verticalAlign=middle;resizable=0;points=[];rounded=1;sketch=1;hachureGap=4;jiggle=2;fillStyle=hachure;curveFitting=1;strokeColor=#003366;fontFamily=Helvetica;fontSize=12;fontColor=#003366;labelBackgroundColor=none;fillColor=#99CCFF;gradientColor=none;" vertex="1" connectable="0" parent="wov52ppFbS1imyL3sNbq-59">
          <mxGeometry x="0.0526" y="-3" relative="1" as="geometry">
            <mxPoint y="-13" as="offset" />
          </mxGeometry>
        </mxCell>
        <mxCell id="wov52ppFbS1imyL3sNbq-62" style="edgeStyle=orthogonalEdgeStyle;rounded=0;sketch=1;hachureGap=4;jiggle=2;curveFitting=1;orthogonalLoop=1;jettySize=auto;html=1;strokeColor=#003366;align=center;verticalAlign=middle;fontFamily=Helvetica;fontSize=12;fontColor=#003366;labelBackgroundColor=none;endArrow=classic;" edge="1" parent="1" source="wov52ppFbS1imyL3sNbq-56" target="wov52ppFbS1imyL3sNbq-31">
          <mxGeometry relative="1" as="geometry" />
        </mxCell>
        <mxCell id="wov52ppFbS1imyL3sNbq-64" value="No" style="edgeLabel;html=1;align=center;verticalAlign=middle;resizable=0;points=[];rounded=1;sketch=1;hachureGap=4;jiggle=2;fillStyle=hachure;curveFitting=1;strokeColor=#003366;fontFamily=Helvetica;fontSize=12;fontColor=#003366;labelBackgroundColor=none;fillColor=#99CCFF;gradientColor=none;" vertex="1" connectable="0" parent="wov52ppFbS1imyL3sNbq-62">
          <mxGeometry x="-0.1635" relative="1" as="geometry">
            <mxPoint x="30" as="offset" />
          </mxGeometry>
        </mxCell>
        <mxCell id="wov52ppFbS1imyL3sNbq-56" value="" style="strokeWidth=2;html=1;shape=mxgraph.flowchart.decision;whiteSpace=wrap;rounded=1;sketch=1;hachureGap=4;jiggle=2;curveFitting=1;strokeColor=#003366;align=center;verticalAlign=middle;fontFamily=Helvetica;fontSize=12;fontColor=#003366;fillColor=#99CCFF;" vertex="1" parent="1">
          <mxGeometry x="400" y="1000" width="40" height="40" as="geometry" />
        </mxCell>
        <mxCell id="wov52ppFbS1imyL3sNbq-58" value="Store Artifact in&lt;br&gt;Remote Cache" style="rounded=1;whiteSpace=wrap;html=1;sketch=1;hachureGap=4;jiggle=2;curveFitting=1;strokeColor=#003366;align=center;verticalAlign=middle;fontFamily=Helvetica;fontSize=12;fontColor=#003366;fillColor=#99CCFF;" vertex="1" parent="1">
          <mxGeometry x="560" y="1000" width="120" height="40" as="geometry" />
        </mxCell>
        <mxCell id="wov52ppFbS1imyL3sNbq-60" style="edgeStyle=orthogonalEdgeStyle;rounded=0;sketch=1;hachureGap=4;jiggle=2;curveFitting=1;orthogonalLoop=1;jettySize=auto;html=1;entryX=1;entryY=0.5;entryDx=0;entryDy=0;entryPerimeter=0;strokeColor=#003366;align=center;verticalAlign=middle;fontFamily=Helvetica;fontSize=12;fontColor=#003366;labelBackgroundColor=none;endArrow=classic;" edge="1" parent="1" source="wov52ppFbS1imyL3sNbq-58" target="wov52ppFbS1imyL3sNbq-31">
          <mxGeometry relative="1" as="geometry">
            <Array as="points">
              <mxPoint x="620" y="1140" />
            </Array>
          </mxGeometry>
        </mxCell>
        <mxCell id="wov52ppFbS1imyL3sNbq-65" value="Download Enabled?" style="text;html=1;align=center;verticalAlign=middle;whiteSpace=wrap;rounded=0;fontFamily=Helvetica;fontSize=12;fontColor=#003366;labelBackgroundColor=none;" vertex="1" parent="1">
          <mxGeometry x="440" y="525" width="60" height="30" as="geometry" />
        </mxCell>
        <mxCell id="wov52ppFbS1imyL3sNbq-66" value="Outcome?" style="text;html=1;align=center;verticalAlign=middle;whiteSpace=wrap;rounded=0;fontFamily=Helvetica;fontSize=12;fontColor=#003366;labelBackgroundColor=none;" vertex="1" parent="1">
          <mxGeometry x="340" y="685" width="60" height="30" as="geometry" />
        </mxCell>
        <mxCell id="wov52ppFbS1imyL3sNbq-67" value="Outcome?" style="text;html=1;align=center;verticalAlign=middle;whiteSpace=wrap;rounded=0;fontFamily=Helvetica;fontSize=12;fontColor=#003366;labelBackgroundColor=none;" vertex="1" parent="1">
          <mxGeometry x="340" y="845" width="60" height="30" as="geometry" />
        </mxCell>
        <mxCell id="wov52ppFbS1imyL3sNbq-68" value="Upload&lt;br&gt;Enabled?" style="text;html=1;align=center;verticalAlign=middle;whiteSpace=wrap;rounded=0;fontFamily=Helvetica;fontSize=12;fontColor=#003366;labelBackgroundColor=none;" vertex="1" parent="1">
          <mxGeometry x="340" y="1005" width="60" height="30" as="geometry" />
        </mxCell>
      </root>
    </mxGraphModel>
  </diagram>
</mxfile>
